#N canvas 121 170 450 300 10;
#X obj 239 28 inlet;
#X obj 121 22 inlet~;
#X obj 149 80 *~;
#X obj 149 132 outlet~;
#X obj 201 64 / 100;
#X text 284 122 this is an abstraction;
#X text 285 146 used by tutorial8.pd;
#X connect 0 0 4 0;
#X connect 1 0 2 0;
#X connect 2 0 3 0;
#X connect 4 0 2 1;
