#N canvas 218 112 758 478 10;
#X obj 556 2 moses 10;
#X floatatom 556 -16 4 0 0 0 - - -;
#X floatatom 601 -17 4 0 0 0 - - -;
#X floatatom 556 24 4 0 0 0 - - -;
#X obj 41 50 pack f f s;
#X symbolatom 106 26 10 0 0 0 - - -;
#X floatatom 66 20 5 0 0 0 - - -;
#X floatatom 22 19 5 0 0 0 - - -;
#X obj 41 73 print;
#X floatatom 247 228 5 0 0 0 - - -;
#X floatatom 247 189 5 0 0 0 - - -;
#X floatatom 289 189 5 0 0 0 - - -;
#X obj 157 208 max 3;
#X floatatom 157 228 5 0 0 0 - - -;
#X floatatom 157 189 5 0 0 0 - - -;
#X floatatom 199 189 5 0 0 0 - - -;
#X obj 247 208 min 3;
#X obj 186 71 bng 15 250 50 0 empty empty empty 17 7 0 10 -262144 -1
-1;
#X floatatom 204 72 5 0 0 0 - - -;
#X floatatom 186 114 5 0 0 0 - - -;
#X obj 254 71 bng 15 250 50 0 empty empty empty 17 7 0 10 -262144 -1
-1;
#X floatatom 284 72 5 0 0 0 - - -;
#X floatatom 254 114 5 0 0 0 - - -;
#X obj 21 214 select 2 4 6;
#X floatatom 21 192 5 0 0 0 - - -;
#X obj 21 234 bng 15 250 50 0 empty empty empty 17 7 0 10 -262144 -1
-1;
#X obj 47 234 bng 15 250 50 0 empty empty empty 17 7 0 10 -262144 -1
-1;
#X obj 73 234 bng 15 250 50 0 empty empty empty 17 7 0 10 -262144 -1
-1;
#X floatatom 100 235 5 0 0 0 - - -;
#X obj 331 1 spigot;
#X floatatom 331 -18 5 0 0 0 - - -;
#X floatatom 331 24 5 0 0 0 - - -;
#X obj 372 -21 tgl 15 0 empty empty empty 17 7 0 10 -262144 -1 -1 0
1;
#X obj 186 91 int;
#X obj 254 91 float;
#X obj 352 70 bng 15 250 50 0 empty empty empty 17 7 0 10 -262144 -1
-1;
#X obj 352 90 symbol;
#X symbolatom 385 68 10 0 0 0 - - -;
#X symbolatom 352 113 10 0 0 0 - - -;
#X obj 469 93 random 100;
#X floatatom 469 119 5 0 0 0 - - -;
#X obj 469 71 bng 15 250 50 0 empty empty empty 17 7 0 10 -262144 -1
-1;
#X floatatom 526 72 5 0 0 0 - - -;
#X obj 347 212 line;
#X floatatom 347 235 5 0 0 0 - - -;
#X msg 342 170 0 \, 100 5000;
#X msg 359 191 50 \, -50 3000;
#X floatatom 499 -21 5 0 0 0 - - -;
#X obj 441 -2 delay 500;
#X obj 441 18 bng 15 250 50 0 empty empty empty 17 7 0 10 -262144 -1
-1;
#X obj 441 -21 bng 15 250 50 0 empty empty empty 17 7 0 10 -262144
-1 -1;
#X obj 218 15 bng 15 50 30 0 empty empty empty 17 7 0 10 -262144 -1
-1;
#X obj 218 -24 tgl 15 0 empty empty empty 17 7 0 10 -262144 -1 -1 0
1;
#X floatatom 259 -25 5 0 0 0 - - -;
#X obj 218 -5 metro 250;
#X obj 656 157 route;
#X floatatom 601 44 4 0 0 0 - - -;
#X floatatom 652 44 4 0 0 0 - - -;
#X obj 601 23 moses 15;
#X text 14 -21 some control structures;
#X obj 14 133 unpack f f s;
#X floatatom 12 158 5 0 0 0 - - -;
#X floatatom 49 159 5 0 0 0 - - -;
#X symbolatom 92 159 10 0 0 0 - - -;
#X msg 14 109 12 123 hola;
#X floatatom 324 388 5 0 0 0 - - -;
#X floatatom 325 317 5 0 0 0 - - -;
#X obj 325 340 send loquesea;
#X obj 324 366 receive loquesea;
#X obj 457 207 trigger b f b f;
#X floatatom 457 187 5 0 0 0 - - -;
#X obj 561 234 print first;
#X obj 538 254 print second;
#X obj 486 234 print third;
#X obj 457 255 print fourth;
#X obj 651 102 loadbang;
#X floatatom 23 349 0 0 0 0 - - -;
#X floatatom 140 348 0 0 0 0 - - -;
#X obj 89 281 hsl 128 15 0 127 0 0 empty empty empty -2 -6 0 8 -262144
-1 -1 0 1;
#X obj 23 319 autoscale -0.1 0.1;
#X obj 140 318 autoscale 1000 2361;
#X obj 444 338 send~ sonidito;
#X obj 446 364 receive~ sonidito;
#X obj 444 311 osc~ 333;
#X obj 446 395 dac~;
#X connect 0 0 3 0;
#X connect 0 1 58 0;
#X connect 1 0 0 0;
#X connect 2 0 0 1;
#X connect 4 0 8 0;
#X connect 5 0 4 2;
#X connect 6 0 4 1;
#X connect 7 0 4 0;
#X connect 10 0 16 0;
#X connect 11 0 16 1;
#X connect 12 0 13 0;
#X connect 14 0 12 0;
#X connect 15 0 12 1;
#X connect 16 0 9 0;
#X connect 17 0 33 0;
#X connect 18 0 33 1;
#X connect 20 0 34 0;
#X connect 21 0 34 1;
#X connect 23 0 25 0;
#X connect 23 1 26 0;
#X connect 23 2 27 0;
#X connect 23 3 28 0;
#X connect 24 0 23 0;
#X connect 29 0 31 0;
#X connect 30 0 29 0;
#X connect 32 0 29 1;
#X connect 33 0 19 0;
#X connect 34 0 22 0;
#X connect 35 0 36 0;
#X connect 36 0 38 0;
#X connect 37 0 36 1;
#X connect 39 0 40 0;
#X connect 41 0 39 0;
#X connect 42 0 39 1;
#X connect 43 0 44 0;
#X connect 45 0 43 0;
#X connect 46 0 43 0;
#X connect 47 0 48 1;
#X connect 48 0 49 0;
#X connect 50 0 48 0;
#X connect 52 0 54 0;
#X connect 53 0 54 1;
#X connect 54 0 51 0;
#X connect 58 0 56 0;
#X connect 58 1 57 0;
#X connect 60 0 61 0;
#X connect 60 1 62 0;
#X connect 60 2 63 0;
#X connect 64 0 60 0;
#X connect 66 0 67 0;
#X connect 68 0 65 0;
#X connect 69 0 74 0;
#X connect 69 1 73 0;
#X connect 69 2 72 0;
#X connect 69 3 71 0;
#X connect 70 0 69 0;
#X connect 78 0 79 0;
#X connect 78 0 80 0;
#X connect 79 0 76 0;
#X connect 80 0 77 0;
#X connect 82 0 84 0;
#X connect 83 0 81 0;
