#N canvas 104 71 458 308 10;
#X obj 17 51 adc~;
#X obj 21 216 dac~;
#X floatatom 87 196 5 0 0 0 - - -;
#X obj 211 22 tgl 15 0 empty empty dsp_toogle 0 -6 0 10 -258113 -1
-1 1 1;
#X msg 211 42 \; pd dsp \$1;
#X obj 278 23 loadbang;
#X text 276 46 general on off audio;
#X msg 277 163 0.8;
#X obj 21 191 *~ 1;
#X text 159 120 minutos*60*1000. (300000 = 5 min);
#X obj 22 166 delread~ \$0del 1000;
#X obj 22 96 delwrite~ \$0del 1000;
#X floatatom 22 146 5 0 0 0 - - -;
#X text 156 97 < longitud del delay en millisecs;
#X text 56 144 < read this long from delay;
#X text 94 214 volumen : values between 0 and 1;
#X connect 0 0 11 0;
#X connect 0 1 11 0;
#X connect 2 0 8 1;
#X connect 3 0 4 0;
#X connect 5 0 3 0;
#X connect 5 0 7 0;
#X connect 7 0 2 0;
#X connect 8 0 1 1;
#X connect 8 0 1 0;
#X connect 10 0 8 0;
#X connect 12 0 10 0;
