#N canvas 0 66 430 476 10;
#X obj 256 180 *~;
#X floatatom 256 95 0 0 0 0 - - -;
#X floatatom 165 133 0 0 0 0 - - -;
#X obj 166 200 +~;
#X floatatom 278 150 0 0 0 0 - - -;
#X text 163 87 carrier;
#X text 162 105 frequency;
#X text 241 71 frequency;
#X text 242 54 modulation;
#X obj 166 252 osc~;
#X text 50 234 "carrier";
#X text 32 252 oscillator -->;
#X text 40 161 add modulator;
#X text 39 179 to carrier;
#X text 37 198 frequency -->;
#X text 317 162 index;
#X text 319 143 modulation;
#X obj 256 120 osc~;
#X obj 166 307 dac~;
#X connect 0 0 3 1;
#X connect 1 0 17 0;
#X connect 2 0 3 0;
#X connect 3 0 9 0;
#X connect 4 0 0 1;
#X connect 9 0 18 0;
#X connect 9 0 18 1;
#X connect 17 0 0 0;
