#N canvas 249 119 702 356 10;
#X declare -lib mrpeach;
#X obj 16 13 import mrpeach;
#X obj 17 117 unpackOSC;
#X obj 17 154 routeOSC /test /blah;
#X obj 305 247 udpsend;
#X obj 408 223 packOSC;
#X msg 320 89 disconnect;
#X msg 476 163 send /test 1000;
#X text 351 21 IP : port;
#X msg 384 164 send /test \$1;
#X floatatom 384 143 5 0 0 0 - - -;
#X msg 478 190 send /blah/blih 999;
#X obj 75 180 routeOSC /blih;
#X floatatom 17 230 5 0 0 0 - - -;
#X floatatom 75 230 5 0 0 0 - - -;
#X text 122 93 port;
#X obj 305 269 tgl 15 0 empty empty empty 17 7 0 10 -262144 -1 -1 0
1;
#X text 324 268 connected?;
#X text 283 5 SEND -----;
#X text 12 67 RECEIVE ------;
#X text 148 154 addresses;
#X obj 17 93 udpreceive 3333;
#X msg 303 64 connect localhost 3333;
#X obj 134 229 print anythingelse;
#X msg 288 42 connect 192.168.1.34 3333;
#X msg 394 90 connect 192.168.1.33 3332;
#X text 445 65 localhost or 127.0.0.1;
#X text 42 306 http://en.flossmanuals.net/pure-data/network-data/osc/
;
#X text 41 290 check this out;
#X text 471 120 2 now send it: address + message;
#X text 469 22 1 connect first;
#X connect 1 0 2 0;
#X connect 2 0 12 0;
#X connect 2 1 11 0;
#X connect 2 2 22 0;
#X connect 3 0 15 0;
#X connect 4 0 3 0;
#X connect 5 0 3 0;
#X connect 6 0 4 0;
#X connect 8 0 4 0;
#X connect 9 0 8 0;
#X connect 10 0 4 0;
#X connect 11 0 13 0;
#X connect 20 0 1 0;
#X connect 21 0 3 0;
#X connect 23 0 3 0;
#X connect 24 0 3 0;
