#N canvas 364 131 634 398 12;
#X text 54 3 event order;
#X obj 338 63 + 1;
#X floatatom 278 92 5 0 0 0 - - -;
#X text 274 12 counter \, hot & cold inlets;
#X floatatom 267 224 5 0 0 0 - - -;
#X obj 267 253 +;
#X floatatom 267 277 5 0 0 0 - - -;
#X floatatom 344 220 5 0 0 0 - - -;
#X obj 344 243 t f f;
#X obj 344 268 +;
#X floatatom 344 293 5 0 0 0 - - -;
#X text 264 194 do the second instead of the first;
#X msg 494 104 1 \, 2 \, 3 \, 4;
#X obj 509 145 print;
#X obj 278 63 f;
#X obj 278 34 bng 15 250 50 0 empty empty empty 0 -6 0 8 -262144 -1
-1;
#X msg 311 35 0;
#X text 342 33 reset;
#X msg 498 76 1 2 3 4;
#X text 27 -37 change the font of your patch on menu EDIT / FONT;
#X obj 278 130 print;
#X text 17 119 not very good idea;
#X msg 64 26 a;
#X msg 18 92 b;
#X msg 107 66 c;
#X msg 150 95 d;
#X obj 76 196 print;
#X text 17 119 not very good idea;
#X connect 1 0 14 1;
#X connect 2 0 20 0;
#X connect 4 0 5 0;
#X connect 4 0 5 1;
#X connect 5 0 6 0;
#X connect 7 0 8 0;
#X connect 8 0 9 0;
#X connect 8 1 9 1;
#X connect 9 0 10 0;
#X connect 12 0 13 0;
#X connect 14 0 1 0;
#X connect 14 0 2 0;
#X connect 15 0 14 0;
#X connect 16 0 14 0;
#X connect 18 0 13 0;
#X connect 22 0 23 0;
#X connect 22 0 24 0;
#X connect 22 0 26 0;
#X connect 23 0 26 0;
#X connect 24 0 25 0;
#X connect 24 0 26 0;
#X connect 25 0 26 0;
