#N canvas 0 0 450 300 10;
#N canvas 0 0 450 300 graph27 0;
#X array array1 4 float 1;
#A 0 0.935708 0.635711 0.0285711 0.364283;
#X coords 0 1 3 0 200 140 1;
#X restore 210 74 graph;
#X obj 92 68 tabread array1;
#X obj 44 56 osc~;
#X obj 46 228 dac~;
#X floatatom 44 22 5 0 0 0 - - -;
#X obj 54 130 *~ 1;
#X obj 92 48 hradio 15 1 0 4 empty empty empty 0 -6 0 8 -262144 -1
-1 3;
#X connect 1 0 5 1;
#X connect 2 0 5 0;
#X connect 4 0 2 0;
#X connect 5 0 3 0;
#X connect 5 0 3 1;
#X connect 6 0 1 0;
